<?xml version="1.0" encoding="utf-8"?>
<!-- Generator: Adobe Illustrator 27.0.1, SVG Export Plug-In . SVG Version: 6.00 Build 0)  -->
<svg version="1.1" id="Слой_1" xmlns="http://www.w3.org/2000/svg" xmlns:xlink="http://www.w3.org/1999/xlink" x="0px" y="0px"
	 viewBox="0 0 512 512" style="enable-background:new 0 0 512 512;" xml:space="preserve">
<style type="text/css">
	.st0{fill:url(#SVGID_1_);}
	.st1{fill:#FFFFFF;}
</style>
<linearGradient id="SVGID_1_" gradientUnits="userSpaceOnUse" x1="477.2034" y1="487.3797" x2="60.0687" y2="70.245">
	<stop  offset="0" style="stop-color:#D326E9"/>
	<stop  offset="0.75" style="stop-color:#6E00FF"/>
</linearGradient>
<path class="st0" d="M505.01,232.26v190.22c0,49.46-40.06,89.52-89.52,89.52H113.37c-49.46,0-89.52-40.06-89.52-89.52V222.97
	L9.31,168.59c-9.62-35.92,11.64-72.73,47.44-82.24L370.17,2.32c35.81-9.62,72.62,11.64,82.24,47.44l14.55,54.05
	c1.57,6.04-2.01,12.2-7.94,13.76l-344.64,92.31h368.25C494.94,209.88,505.01,219.95,505.01,232.26z"/>
<path class="st1" d="M186.1,422.48h-55.95c-9.27,0-16.78-7.51-16.78-16.78v0c0-9.27,7.51-16.78,16.78-16.78h55.95
	c9.27,0,16.78,7.51,16.78,16.78v0C202.89,414.97,195.37,422.48,186.1,422.48z"/>
<polygon class="st1" points="178.16,53.79 148.73,200.71 114.38,209.88 142.8,63.3 "/>
<polygon class="st1" points="357.86,5.56 328.55,152.48 294.08,161.77 322.5,15.07 "/>
</svg>
